<svg xmlns="http://www.w3.org/2000/svg" xmlns:xlink="http://www.w3.org/1999/xlink" width="106" zoomAndPan="magnify" viewBox="0 0 79.5 30.750001" height="41" preserveAspectRatio="xMidYMid meet" version="1.0"><defs><clipPath id="199f8bffe9"><path d="M 9 14 L 17 14 L 17 21.277344 L 9 21.277344 Z M 9 14 " clip-rule="nonzero"/></clipPath><clipPath id="47d1dfc4f5"><path d="M 2.007812 6.398438 L 10 6.398438 L 10 14 L 2.007812 14 Z M 2.007812 6.398438 " clip-rule="nonzero"/></clipPath><clipPath id="943f0781d0"><path d="M 2.007812 14 L 9 14 L 9 21 L 2.007812 21 Z M 2.007812 14 " clip-rule="nonzero"/></clipPath><clipPath id="c5b1fad485"><path d="M 50 11 L 77.144531 11 L 77.144531 17 L 50 17 Z M 50 11 " clip-rule="nonzero"/></clipPath></defs><path fill="#e6e7e9" d="M 16.898438 12.703125 L 15.640625 13.679688 C 15.550781 13.160156 15.65625 11.847656 14.367188 9.886719 C 13.253906 8.195312 10.902344 7.214844 10.066406 7.109375 C 10.351562 7.144531 10.894531 7.21875 11.167969 7.28125 C 11.535156 7.367188 13.378906 7.863281 14.710938 9.46875 C 16.046875 11.074219 16.171875 12.441406 16.195312 12.53125 C 16.21875 12.617188 16.269531 12.652344 16.355469 12.652344 C 16.441406 12.652344 16.6875 12.503906 16.824219 12.53125 C 16.933594 12.550781 16.917969 12.652344 16.898438 12.703125 Z M 16.898438 12.703125 " fill-opacity="1" fill-rule="nonzero"/><g clip-path="url(#199f8bffe9)"><path fill="#bcbdc0" d="M 10.648438 21.246094 L 9.675781 19.988281 C 10.195312 19.902344 11.507812 20.003906 13.46875 18.71875 C 15.160156 17.609375 16.144531 15.257812 16.25 14.421875 C 16.214844 14.707031 16.136719 15.25 16.078125 15.523438 C 15.992188 15.886719 15.496094 17.730469 13.886719 19.0625 C 12.28125 20.398438 10.910156 20.519531 10.824219 20.542969 C 10.738281 20.570312 10.699219 20.617188 10.699219 20.703125 C 10.699219 20.789062 10.847656 21.039062 10.824219 21.171875 C 10.804688 21.28125 10.699219 21.269531 10.648438 21.246094 Z M 10.648438 21.246094 " fill-opacity="1" fill-rule="nonzero"/></g><g clip-path="url(#47d1dfc4f5)"><path fill="#bcbdc0" d="M 8.410156 6.414062 L 9.382812 7.675781 C 8.867188 7.761719 7.550781 7.65625 5.589844 8.9375 C 3.894531 10.046875 2.910156 12.394531 2.800781 13.230469 C 2.839844 12.945312 2.914062 12.402344 2.976562 12.132812 C 3.0625 11.765625 3.5625 9.921875 5.171875 8.59375 C 6.777344 7.261719 8.152344 7.140625 8.238281 7.117188 C 8.324219 7.09375 8.359375 7.042969 8.359375 6.957031 C 8.359375 6.871094 8.214844 6.621094 8.238281 6.488281 C 8.257812 6.378906 8.363281 6.390625 8.410156 6.414062 Z M 8.410156 6.414062 " fill-opacity="1" fill-rule="nonzero"/></g><g clip-path="url(#943f0781d0)"><path fill="#e6e7e9" d="M 2.085938 15.019531 L 3.347656 14.046875 C 3.433594 14.566406 3.328125 15.878906 4.609375 17.839844 C 5.71875 19.535156 8.066406 20.519531 8.902344 20.628906 C 8.617188 20.589844 8.074219 20.515625 7.804688 20.453125 C 7.4375 20.371094 5.59375 19.867188 4.261719 18.257812 C 2.933594 16.652344 2.8125 15.28125 2.789062 15.195312 C 2.765625 15.105469 2.714844 15.070312 2.628906 15.070312 C 2.542969 15.070312 2.292969 15.21875 2.160156 15.191406 C 2.050781 15.171875 2.0625 15.070312 2.085938 15.019531 Z M 2.085938 15.019531 " fill-opacity="1" fill-rule="nonzero"/></g><path stroke-linecap="butt" transform="matrix(0.291877, 0, 0, 0.291746, 2.070231, 6.397986)" fill-opacity="1" fill="#1dbf73" fill-rule="nonzero" stroke-linejoin="miter" d="M 25.428383 41.494765 C 34.247919 41.494765 41.394554 34.344917 41.394554 25.521416 C 41.394554 16.711304 34.247919 9.561457 25.428383 9.561457 C 16.608846 9.561457 9.462211 16.711304 9.462211 25.521416 C 9.462211 34.344917 16.608846 41.494765 25.428383 41.494765 Z M 25.428383 41.494765 " stroke="#1dbf73" stroke-width="0.5" stroke-opacity="1" stroke-miterlimit="4"/><path fill="#12141c" d="M 12.582031 12.601562 L 11.871094 13.378906 C 11.519531 12.996094 10.703125 12.15625 9.558594 12.15625 C 8.367188 12.15625 7.449219 12.976562 7.136719 13.378906 L 6.40625 12.730469 C 6.734375 12.167969 7.824219 11.046875 9.558594 11.054688 C 11.289062 11.0625 12.292969 12.089844 12.582031 12.601562 Z M 12.582031 12.601562 " fill-opacity="1" fill-rule="nonzero"/><path fill="#12141c" d="M 8.941406 12.039062 L 8.941406 16.019531 L 9.503906 16.613281 L 10.042969 16.019531 L 10.042969 12.039062 Z M 8.941406 12.039062 " fill-opacity="1" fill-rule="nonzero"/><path fill="#000000" d="M 24.382812 10.011719 L 24.382812 11.027344 L 22.347656 11.027344 L 22.347656 17.128906 L 21.332031 17.128906 L 21.332031 11.027344 L 19.296875 11.027344 L 19.296875 10.011719 Z M 27.945312 10.011719 C 28.507812 10.011719 28.988281 10.207031 29.382812 10.605469 C 29.78125 11 29.980469 11.480469 29.980469 12.042969 C 29.980469 12.605469 29.78125 13.085938 29.382812 13.484375 C 29.355469 13.515625 29.324219 13.542969 29.292969 13.570312 C 29.324219 13.597656 29.355469 13.625 29.382812 13.65625 C 29.78125 14.054688 29.980469 14.53125 29.980469 15.09375 C 29.980469 15.65625 29.78125 16.136719 29.382812 16.535156 C 28.988281 16.929688 28.507812 17.128906 27.945312 17.128906 L 25.402344 17.128906 L 25.402344 10.011719 Z M 26.417969 14.078125 L 26.417969 16.113281 L 27.945312 16.113281 C 28.226562 16.113281 28.464844 16.015625 28.660156 15.816406 C 28.863281 15.617188 28.960938 15.375 28.960938 15.09375 C 28.960938 14.8125 28.863281 14.574219 28.660156 14.378906 C 28.464844 14.179688 28.226562 14.078125 27.945312 14.078125 Z M 27.945312 11.027344 L 26.417969 11.027344 L 26.417969 13.0625 L 27.945312 13.0625 C 28.226562 13.0625 28.464844 12.964844 28.660156 12.765625 C 28.863281 12.566406 28.960938 12.324219 28.960938 12.042969 C 28.960938 11.761719 28.863281 11.523438 28.660156 11.328125 C 28.464844 11.128906 28.226562 11.027344 27.945312 11.027344 Z M 33.539062 10.011719 C 34.523438 10.011719 35.363281 10.359375 36.058594 11.050781 C 36.753906 11.746094 37.101562 12.585938 37.101562 13.570312 C 37.101562 14.554688 36.753906 15.390625 36.058594 16.085938 C 35.363281 16.78125 34.523438 17.128906 33.539062 17.128906 L 30.996094 17.128906 L 30.996094 10.011719 Z M 33.539062 16.113281 C 34.242188 16.113281 34.839844 15.863281 35.335938 15.371094 C 35.835938 14.871094 36.085938 14.273438 36.085938 13.570312 C 36.085938 12.867188 35.835938 12.269531 35.335938 11.773438 C 34.839844 11.277344 34.242188 11.027344 33.539062 11.027344 L 32.015625 11.027344 L 32.015625 16.113281 Z M 41.679688 10.011719 C 42.359375 10.011719 43.207031 10.179688 44.222656 10.519531 L 44.222656 11.535156 C 43.207031 11.195312 42.359375 11.027344 41.679688 11.027344 C 40.980469 11.027344 40.378906 11.277344 39.878906 11.773438 C 39.382812 12.269531 39.136719 12.867188 39.136719 13.570312 C 39.136719 14.273438 39.382812 14.871094 39.878906 15.371094 C 40.378906 15.863281 40.980469 16.113281 41.679688 16.113281 C 42.359375 16.113281 43.207031 15.941406 44.222656 15.605469 L 44.222656 16.621094 C 43.207031 16.960938 42.359375 17.128906 41.679688 17.128906 C 40.695312 17.128906 39.859375 16.78125 39.164062 16.085938 C 38.46875 15.390625 38.121094 14.554688 38.121094 13.570312 C 38.121094 12.585938 38.46875 11.746094 39.164062 11.050781 C 39.859375 10.359375 40.695312 10.011719 41.679688 10.011719 Z M 41.679688 10.011719 " fill-opacity="1" fill-rule="nonzero"/><path fill="#e6e6e8" d="M 47.871094 8.738281 C 47.871094 8.671875 47.820312 8.621094 47.753906 8.621094 C 47.6875 8.621094 47.636719 8.671875 47.636719 8.738281 L 47.636719 18.914062 C 47.636719 18.980469 47.6875 19.035156 47.753906 19.035156 C 47.820312 19.035156 47.871094 18.980469 47.871094 18.914062 Z M 47.871094 8.738281 " fill-opacity="1" fill-rule="nonzero"/><g clip-path="url(#c5b1fad485)"><path fill="#4c5059" d="M 51.542969 11.082031 L 51.542969 11.339844 L 51.03125 11.339844 L 51.03125 12.875 L 50.777344 12.875 L 50.777344 11.339844 L 50.265625 11.339844 L 50.265625 11.082031 Z M 52.695312 12.875 C 52.445312 12.875 52.234375 12.785156 52.0625 12.609375 C 51.886719 12.4375 51.800781 12.226562 51.800781 11.976562 C 51.800781 11.730469 51.886719 11.519531 52.0625 11.34375 C 52.234375 11.171875 52.445312 11.082031 52.695312 11.082031 C 52.941406 11.082031 53.152344 11.171875 53.328125 11.34375 C 53.503906 11.519531 53.589844 11.730469 53.589844 11.976562 C 53.589844 12.226562 53.503906 12.4375 53.328125 12.609375 C 53.152344 12.785156 52.941406 12.875 52.695312 12.875 Z M 52.695312 11.339844 C 52.519531 11.339844 52.367188 11.402344 52.242188 11.527344 C 52.117188 11.652344 52.054688 11.800781 52.054688 11.976562 C 52.054688 12.15625 52.117188 12.304688 52.242188 12.429688 C 52.367188 12.554688 52.519531 12.617188 52.695312 12.617188 C 52.871094 12.617188 53.023438 12.554688 53.144531 12.429688 C 53.273438 12.304688 53.335938 12.15625 53.335938 11.976562 C 53.335938 11.800781 53.273438 11.652344 53.144531 11.527344 C 53.023438 11.402344 52.871094 11.339844 52.695312 11.339844 Z M 54.484375 11.082031 C 54.625 11.082031 54.746094 11.132812 54.847656 11.234375 C 54.945312 11.332031 54.996094 11.453125 54.996094 11.59375 C 54.996094 11.734375 54.945312 11.855469 54.847656 11.957031 C 54.769531 12.03125 54.679688 12.082031 54.578125 12.097656 L 55.027344 12.875 L 54.730469 12.875 L 54.289062 12.105469 L 54.101562 12.105469 L 54.101562 12.875 L 53.84375 12.875 L 53.84375 11.082031 Z M 54.484375 11.339844 L 54.101562 11.339844 L 54.101562 11.851562 L 54.484375 11.851562 C 54.554688 11.851562 54.617188 11.824219 54.664062 11.777344 C 54.714844 11.726562 54.742188 11.664062 54.742188 11.59375 C 54.742188 11.523438 54.714844 11.464844 54.664062 11.414062 C 54.617188 11.363281 54.554688 11.339844 54.484375 11.339844 Z M 56.148438 12.875 C 55.902344 12.875 55.691406 12.785156 55.515625 12.609375 C 55.339844 12.4375 55.253906 12.226562 55.253906 11.976562 C 55.253906 11.730469 55.339844 11.519531 55.515625 11.34375 C 55.691406 11.171875 55.902344 11.082031 56.148438 11.082031 C 56.394531 11.082031 56.605469 11.171875 56.78125 11.34375 C 56.957031 11.519531 57.042969 11.730469 57.042969 11.976562 C 57.042969 12.226562 56.957031 12.4375 56.78125 12.609375 C 56.605469 12.785156 56.394531 12.875 56.148438 12.875 Z M 56.148438 11.339844 C 55.972656 11.339844 55.820312 11.402344 55.695312 11.527344 C 55.570312 11.652344 55.507812 11.800781 55.507812 11.976562 C 55.507812 12.15625 55.570312 12.304688 55.695312 12.429688 C 55.820312 12.554688 55.972656 12.617188 56.148438 12.617188 C 56.324219 12.617188 56.476562 12.554688 56.601562 12.429688 C 56.726562 12.304688 56.789062 12.15625 56.789062 11.976562 C 56.789062 11.800781 56.726562 11.652344 56.601562 11.527344 C 56.476562 11.402344 56.324219 11.339844 56.148438 11.339844 Z M 57.554688 11.484375 L 57.554688 12.875 L 57.300781 12.875 L 57.300781 11.082031 L 57.613281 11.082031 L 58.449219 12.472656 L 58.449219 11.082031 L 58.707031 11.082031 L 58.707031 12.875 L 58.394531 12.875 Z M 60.242188 11.082031 L 60.242188 11.339844 L 59.730469 11.339844 L 59.730469 12.875 L 59.472656 12.875 L 59.472656 11.339844 L 58.960938 11.339844 L 58.960938 11.082031 Z M 61.394531 12.875 C 61.144531 12.875 60.933594 12.785156 60.757812 12.609375 C 60.585938 12.4375 60.496094 12.226562 60.496094 11.976562 C 60.496094 11.730469 60.585938 11.519531 60.757812 11.34375 C 60.933594 11.171875 61.144531 11.082031 61.394531 11.082031 C 61.640625 11.082031 61.851562 11.171875 62.027344 11.34375 C 62.199219 11.519531 62.289062 11.730469 62.289062 11.976562 C 62.289062 12.226562 62.199219 12.4375 62.027344 12.609375 C 61.851562 12.785156 61.640625 12.875 61.394531 12.875 Z M 61.394531 11.339844 C 61.214844 11.339844 61.066406 11.402344 60.941406 11.527344 C 60.816406 11.652344 60.753906 11.800781 60.753906 11.976562 C 60.753906 12.15625 60.816406 12.304688 60.941406 12.429688 C 61.066406 12.554688 61.214844 12.617188 61.394531 12.617188 C 61.570312 12.617188 61.71875 12.554688 61.84375 12.429688 C 61.96875 12.304688 62.03125 12.15625 62.03125 11.976562 C 62.03125 11.800781 61.96875 11.652344 61.84375 11.527344 C 61.71875 11.402344 61.570312 11.339844 61.394531 11.339844 Z M 63.832031 11.082031 C 63.976562 11.082031 64.09375 11.132812 64.195312 11.234375 C 64.296875 11.332031 64.34375 11.453125 64.34375 11.59375 C 64.34375 11.734375 64.296875 11.855469 64.195312 11.957031 C 64.1875 11.964844 64.179688 11.972656 64.171875 11.976562 C 64.179688 11.984375 64.1875 11.992188 64.195312 12 C 64.296875 12.101562 64.34375 12.21875 64.34375 12.363281 C 64.34375 12.503906 64.296875 12.625 64.195312 12.722656 C 64.09375 12.824219 63.976562 12.875 63.832031 12.875 L 63.195312 12.875 L 63.195312 11.082031 Z M 63.449219 12.105469 L 63.449219 12.617188 L 63.832031 12.617188 C 63.902344 12.617188 63.964844 12.59375 64.015625 12.542969 C 64.0625 12.492188 64.089844 12.433594 64.089844 12.363281 C 64.089844 12.289062 64.0625 12.230469 64.015625 12.179688 C 63.964844 12.132812 63.902344 12.105469 63.832031 12.105469 Z M 63.832031 11.339844 L 63.449219 11.339844 L 63.449219 11.851562 L 63.832031 11.851562 C 63.902344 11.851562 63.964844 11.824219 64.015625 11.777344 C 64.0625 11.726562 64.089844 11.664062 64.089844 11.59375 C 64.089844 11.523438 64.0625 11.464844 64.015625 11.414062 C 63.964844 11.363281 63.902344 11.339844 63.832031 11.339844 Z M 64.601562 12.105469 L 64.601562 11.082031 L 64.855469 11.082031 L 64.855469 12.105469 C 64.855469 12.246094 64.90625 12.367188 65.007812 12.46875 C 65.105469 12.566406 65.226562 12.617188 65.367188 12.617188 C 65.511719 12.617188 65.628906 12.566406 65.730469 12.46875 C 65.832031 12.367188 65.878906 12.246094 65.878906 12.105469 L 65.878906 11.082031 L 66.136719 11.082031 L 66.136719 12.105469 C 66.136719 12.316406 66.0625 12.5 65.910156 12.648438 C 65.761719 12.796875 65.582031 12.875 65.367188 12.875 C 65.15625 12.875 64.976562 12.796875 64.824219 12.648438 C 64.675781 12.5 64.601562 12.316406 64.601562 12.105469 Z M 66.902344 11.082031 C 67.03125 11.082031 67.203125 11.136719 67.414062 11.25 L 67.414062 11.503906 C 67.203125 11.394531 67.03125 11.339844 66.902344 11.339844 C 66.832031 11.339844 66.773438 11.363281 66.722656 11.414062 C 66.671875 11.464844 66.648438 11.523438 66.648438 11.59375 C 66.648438 11.6875 66.777344 11.789062 67.03125 11.902344 C 67.289062 12.011719 67.414062 12.164062 67.414062 12.363281 C 67.414062 12.503906 67.363281 12.625 67.265625 12.722656 C 67.164062 12.824219 67.046875 12.875 66.902344 12.875 C 66.777344 12.875 66.605469 12.816406 66.390625 12.707031 L 66.390625 12.453125 C 66.605469 12.5625 66.777344 12.617188 66.902344 12.617188 C 66.972656 12.617188 67.035156 12.59375 67.082031 12.542969 C 67.132812 12.492188 67.160156 12.433594 67.160156 12.363281 C 67.160156 12.269531 67.03125 12.164062 66.777344 12.054688 C 66.519531 11.945312 66.390625 11.789062 66.390625 11.59375 C 66.390625 11.453125 66.441406 11.332031 66.542969 11.234375 C 66.640625 11.132812 66.761719 11.082031 66.902344 11.082031 Z M 67.925781 12.875 L 67.671875 12.875 L 67.671875 11.082031 L 67.925781 11.082031 Z M 68.4375 11.484375 L 68.4375 12.875 L 68.183594 12.875 L 68.183594 11.082031 L 68.496094 11.082031 L 69.332031 12.472656 L 69.332031 11.082031 L 69.589844 11.082031 L 69.589844 12.875 L 69.277344 12.875 Z M 70.867188 11.082031 L 70.867188 11.339844 L 70.101562 11.339844 L 70.101562 11.851562 L 70.867188 11.851562 L 70.867188 12.105469 L 70.101562 12.105469 L 70.101562 12.617188 L 70.867188 12.617188 L 70.867188 12.875 L 69.84375 12.875 L 69.84375 11.082031 Z M 71.636719 11.082031 C 71.765625 11.082031 71.933594 11.136719 72.148438 11.25 L 72.148438 11.503906 C 71.933594 11.394531 71.765625 11.339844 71.636719 11.339844 C 71.566406 11.339844 71.503906 11.363281 71.453125 11.414062 C 71.40625 11.464844 71.378906 11.523438 71.378906 11.59375 C 71.378906 11.6875 71.507812 11.789062 71.765625 11.902344 C 72.019531 12.011719 72.148438 12.164062 72.148438 12.363281 C 72.148438 12.503906 72.097656 12.625 72 12.722656 C 71.898438 12.824219 71.777344 12.875 71.636719 12.875 C 71.507812 12.875 71.335938 12.816406 71.125 12.707031 L 71.125 12.453125 C 71.335938 12.5625 71.507812 12.617188 71.636719 12.617188 C 71.707031 12.617188 71.765625 12.59375 71.816406 12.542969 C 71.867188 12.492188 71.890625 12.433594 71.890625 12.363281 C 71.890625 12.269531 71.765625 12.164062 71.507812 12.054688 C 71.253906 11.945312 71.125 11.789062 71.125 11.59375 C 71.125 11.453125 71.175781 11.332031 71.273438 11.234375 C 71.375 11.132812 71.496094 11.082031 71.636719 11.082031 Z M 72.914062 11.082031 C 73.042969 11.082031 73.214844 11.136719 73.425781 11.25 L 73.425781 11.503906 C 73.214844 11.394531 73.042969 11.339844 72.914062 11.339844 C 72.84375 11.339844 72.785156 11.363281 72.734375 11.414062 C 72.683594 11.464844 72.660156 11.523438 72.660156 11.59375 C 72.660156 11.6875 72.789062 11.789062 73.042969 11.902344 C 73.300781 12.011719 73.425781 12.164062 73.425781 12.363281 C 73.425781 12.503906 73.378906 12.625 73.277344 12.722656 C 73.175781 12.824219 73.058594 12.875 72.914062 12.875 C 72.789062 12.875 72.617188 12.816406 72.402344 12.707031 L 72.402344 12.453125 C 72.617188 12.5625 72.789062 12.617188 72.914062 12.617188 C 72.984375 12.617188 73.046875 12.59375 73.097656 12.542969 C 73.144531 12.492188 73.171875 12.433594 73.171875 12.363281 C 73.171875 12.269531 73.042969 12.164062 72.789062 12.054688 C 72.53125 11.945312 72.402344 11.789062 72.402344 11.59375 C 72.402344 11.453125 72.453125 11.332031 72.554688 11.234375 C 72.652344 11.132812 72.773438 11.082031 72.914062 11.082031 Z M 50.902344 14.742188 C 51.152344 14.742188 51.363281 14.832031 51.535156 15.003906 C 51.710938 15.179688 51.800781 15.390625 51.800781 15.636719 C 51.800781 15.886719 51.710938 16.097656 51.535156 16.269531 C 51.363281 16.445312 51.152344 16.53125 50.902344 16.53125 L 50.265625 16.53125 L 50.265625 14.742188 Z M 50.902344 16.277344 C 51.082031 16.277344 51.230469 16.214844 51.355469 16.089844 C 51.480469 15.964844 51.542969 15.816406 51.542969 15.636719 C 51.542969 15.460938 51.480469 15.3125 51.355469 15.1875 C 51.230469 15.0625 51.082031 15 50.902344 15 L 50.519531 15 L 50.519531 16.277344 Z M 53.078125 14.742188 L 53.078125 15 L 52.3125 15 L 52.3125 15.511719 L 53.078125 15.511719 L 53.078125 15.765625 L 52.3125 15.765625 L 52.3125 16.277344 L 53.078125 16.277344 L 53.078125 16.53125 L 52.054688 16.53125 L 52.054688 14.742188 Z M 54.167969 16.53125 L 53.90625 16.53125 L 53.257812 14.742188 L 53.527344 14.742188 L 54.039062 16.140625 L 54.546875 14.742188 L 54.820312 14.742188 Z M 56.019531 14.742188 L 56.019531 15 L 55.253906 15 L 55.253906 15.511719 L 56.019531 15.511719 L 56.019531 15.765625 L 55.253906 15.765625 L 55.253906 16.277344 L 56.019531 16.277344 L 56.019531 16.53125 L 54.996094 16.53125 L 54.996094 14.742188 Z M 56.53125 16.277344 L 57.425781 16.277344 L 57.425781 16.53125 L 56.277344 16.53125 L 56.277344 14.742188 L 56.53125 14.742188 Z M 58.578125 16.53125 C 58.332031 16.53125 58.121094 16.445312 57.945312 16.269531 C 57.769531 16.097656 57.683594 15.886719 57.683594 15.636719 C 57.683594 15.390625 57.769531 15.179688 57.945312 15.003906 C 58.121094 14.832031 58.332031 14.742188 58.578125 14.742188 C 58.824219 14.742188 59.039062 14.832031 59.210938 15.003906 C 59.386719 15.179688 59.472656 15.390625 59.472656 15.636719 C 59.472656 15.886719 59.386719 16.097656 59.210938 16.269531 C 59.039062 16.445312 58.824219 16.53125 58.578125 16.53125 Z M 58.578125 15 C 58.402344 15 58.25 15.0625 58.125 15.1875 C 58 15.3125 57.9375 15.460938 57.9375 15.636719 C 57.9375 15.816406 58 15.964844 58.125 16.089844 C 58.25 16.214844 58.402344 16.277344 58.578125 16.277344 C 58.753906 16.277344 58.90625 16.214844 59.03125 16.089844 C 59.15625 15.964844 59.21875 15.816406 59.21875 15.636719 C 59.21875 15.460938 59.15625 15.3125 59.03125 15.1875 C 58.90625 15.0625 58.753906 15 58.578125 15 Z M 60.371094 14.742188 C 60.511719 14.742188 60.632812 14.792969 60.730469 14.894531 C 60.832031 14.992188 60.882812 15.113281 60.882812 15.253906 C 60.882812 15.394531 60.832031 15.515625 60.730469 15.617188 C 60.632812 15.714844 60.511719 15.765625 60.371094 15.765625 L 59.984375 15.765625 L 59.984375 16.53125 L 59.730469 16.53125 L 59.730469 14.742188 Z M 60.371094 15 L 59.984375 15 L 59.984375 15.511719 L 60.371094 15.511719 C 60.441406 15.511719 60.5 15.484375 60.550781 15.4375 C 60.601562 15.386719 60.625 15.324219 60.625 15.253906 C 60.625 15.183594 60.601562 15.125 60.550781 15.074219 C 60.5 15.023438 60.441406 15 60.371094 15 Z M 61.394531 15.144531 L 61.394531 16.53125 L 61.136719 16.53125 L 61.136719 14.742188 L 61.449219 14.742188 L 62.03125 15.707031 L 62.613281 14.742188 L 62.925781 14.742188 L 62.925781 16.53125 L 62.671875 16.53125 L 62.671875 15.144531 L 62.03125 16.203125 Z M 64.207031 14.742188 L 64.207031 15 L 63.4375 15 L 63.4375 15.511719 L 64.207031 15.511719 L 64.207031 15.765625 L 63.4375 15.765625 L 63.4375 16.277344 L 64.207031 16.277344 L 64.207031 16.53125 L 63.183594 16.53125 L 63.183594 14.742188 Z M 64.71875 15.144531 L 64.71875 16.53125 L 64.460938 16.53125 L 64.460938 14.742188 L 64.777344 14.742188 L 65.613281 16.132812 L 65.613281 14.742188 L 65.871094 14.742188 L 65.871094 16.53125 L 65.554688 16.53125 Z M 67.40625 14.742188 L 67.40625 15 L 66.894531 15 L 66.894531 16.53125 L 66.636719 16.53125 L 66.636719 15 L 66.125 15 L 66.125 14.742188 Z M 69.207031 14.742188 C 69.375 14.742188 69.589844 14.785156 69.84375 14.871094 L 69.84375 15.125 C 69.589844 15.042969 69.375 15 69.207031 15 C 69.027344 15 68.878906 15.0625 68.753906 15.1875 C 68.628906 15.3125 68.566406 15.460938 68.566406 15.636719 C 68.566406 15.816406 68.628906 15.964844 68.753906 16.089844 C 68.878906 16.214844 69.027344 16.277344 69.207031 16.277344 C 69.375 16.277344 69.589844 16.234375 69.84375 16.148438 L 69.84375 16.40625 C 69.589844 16.492188 69.375 16.53125 69.207031 16.53125 C 68.957031 16.53125 68.746094 16.445312 68.574219 16.269531 C 68.398438 16.097656 68.308594 15.886719 68.308594 15.636719 C 68.308594 15.390625 68.398438 15.179688 68.574219 15.003906 C 68.746094 14.832031 68.957031 14.742188 69.207031 14.742188 Z M 71.125 14.742188 L 71.125 15 L 70.355469 15 L 70.355469 15.511719 L 71.125 15.511719 L 71.125 15.765625 L 70.355469 15.765625 L 70.355469 16.277344 L 71.125 16.277344 L 71.125 16.53125 L 70.101562 16.53125 L 70.101562 14.742188 Z M 71.636719 15.144531 L 71.636719 16.53125 L 71.378906 16.53125 L 71.378906 14.742188 L 71.695312 14.742188 L 72.53125 16.132812 L 72.53125 14.742188 L 72.789062 14.742188 L 72.789062 16.53125 L 72.472656 16.53125 Z M 74.324219 14.742188 L 74.324219 15 L 73.8125 15 L 73.8125 16.53125 L 73.554688 16.53125 L 73.554688 15 L 73.042969 15 L 73.042969 14.742188 Z M 75.21875 14.742188 C 75.359375 14.742188 75.480469 14.792969 75.578125 14.894531 C 75.679688 14.992188 75.730469 15.113281 75.730469 15.253906 C 75.730469 15.394531 75.679688 15.515625 75.578125 15.617188 C 75.503906 15.691406 75.414062 15.742188 75.3125 15.757812 L 75.761719 16.53125 L 75.464844 16.53125 L 75.019531 15.765625 L 74.835938 15.765625 L 74.835938 16.53125 L 74.578125 16.53125 L 74.578125 14.742188 Z M 75.21875 15 L 74.835938 15 L 74.835938 15.511719 L 75.21875 15.511719 C 75.289062 15.511719 75.347656 15.484375 75.398438 15.4375 C 75.449219 15.386719 75.472656 15.324219 75.472656 15.253906 C 75.472656 15.183594 75.449219 15.125 75.398438 15.074219 C 75.347656 15.023438 75.289062 15 75.21875 15 Z M 77.007812 14.742188 L 77.007812 15 L 76.242188 15 L 76.242188 15.511719 L 77.007812 15.511719 L 77.007812 15.765625 L 76.242188 15.765625 L 76.242188 16.277344 L 77.007812 16.277344 L 77.007812 16.53125 L 75.984375 16.53125 L 75.984375 14.742188 Z M 77.007812 14.742188 " fill-opacity="1" fill-rule="nonzero"/></g></svg>